<?xml version="1.0"?>
<svg xmlns="http://www.w3.org/2000/svg" viewBox="0 0 32 32">
    <path style="text-indent:0;text-align:start;line-height:normal;text-transform:none;block-progression:tb;-inkscape-font-specification:Sans" d="M 9 3 C 7.3550302 3 6 4.3550302 6 6 L 6 24 C 6 25.64497 7.3550302 27 9 27 L 9 25 C 8.4349698 25 8 24.56503 8 24 C 8 23.43497 8.4349698 23 9 23 L 24 23 L 24 25 L 17 25 L 17 27 L 25 27 L 26 27 L 26 26 L 26 4 L 26 3 L 25 3 L 9 3 z M 9 5 L 24 5 L 24 21 L 9 21 C 8.6470169 21 8.3157581 21.073236 8 21.1875 L 8 6 C 8 5.4349698 8.4349698 5 9 5 z M 11 7 L 11 9 L 13 9 L 13 7 L 11 7 z M 11 12 L 11 14 L 13 14 L 13 12 L 11 12 z M 11 17 L 11 19 L 13 19 L 13 17 L 11 17 z M 11 24 L 11 29 L 13 27 L 15 29 L 15 24 L 11 24 z" overflow="visible" font-family="Sans"/>
</svg>
